<svg id="visual" viewBox="0 0 1920 1080" width="1920" height="1080" xmlns="http://www.w3.org/2000/svg" xmlns:xlink="http://www.w3.org/1999/xlink" version="1.1"><rect x="0" y="0" width="1920" height="1080" fill="#2A2A2E"></rect><path d="M0 758L128 766L256 857L384 775L512 782L640 836L768 836L896 848L1024 792L1152 788L1280 831L1408 824L1536 858L1664 823L1792 813L1920 840L1920 1081L1792 1081L1664 1081L1536 1081L1408 1081L1280 1081L1152 1081L1024 1081L896 1081L768 1081L640 1081L512 1081L384 1081L256 1081L128 1081L0 1081Z" fill="#fbdd11"></path><path d="M0 866L128 812L256 851L384 891L512 826L640 847L768 859L896 879L1024 829L1152 841L1280 884L1408 805L1536 821L1664 855L1792 869L1920 870L1920 1081L1792 1081L1664 1081L1536 1081L1408 1081L1280 1081L1152 1081L1024 1081L896 1081L768 1081L640 1081L512 1081L384 1081L256 1081L128 1081L0 1081Z" fill="#d9da15"></path><path d="M0 891L128 901L256 898L384 902L512 901L640 874L768 904L896 869L1024 865L1152 904L1280 909L1408 877L1536 920L1664 924L1792 855L1920 852L1920 1081L1792 1081L1664 1081L1536 1081L1408 1081L1280 1081L1152 1081L1024 1081L896 1081L768 1081L640 1081L512 1081L384 1081L256 1081L128 1081L0 1081Z" fill="#b7d522"></path><path d="M0 900L128 899L256 902L384 912L512 947L640 929L768 937L896 920L1024 938L1152 906L1280 902L1408 935L1536 909L1664 902L1792 912L1920 900L1920 1081L1792 1081L1664 1081L1536 1081L1408 1081L1280 1081L1152 1081L1024 1081L896 1081L768 1081L640 1081L512 1081L384 1081L256 1081L128 1081L0 1081Z" fill="#95cf30"></path><path d="M0 952L128 943L256 968L384 950L512 978L640 942L768 960L896 981L1024 969L1152 971L1280 986L1408 964L1536 984L1664 957L1792 948L1920 971L1920 1081L1792 1081L1664 1081L1536 1081L1408 1081L1280 1081L1152 1081L1024 1081L896 1081L768 1081L640 1081L512 1081L384 1081L256 1081L128 1081L0 1081Z" fill="#72c73e"></path><path d="M0 1012L128 997L256 993L384 998L512 1014L640 995L768 989L896 1007L1024 997L1152 988L1280 987L1408 989L1536 1000L1664 988L1792 989L1920 997L1920 1081L1792 1081L1664 1081L1536 1081L1408 1081L1280 1081L1152 1081L1024 1081L896 1081L768 1081L640 1081L512 1081L384 1081L256 1081L128 1081L0 1081Z" fill="#4cbf4b"></path></svg>