<svg id="visual" viewBox="0 0 1920 1080" width="1920" height="1080" xmlns="http://www.w3.org/2000/svg" xmlns:xlink="http://www.w3.org/1999/xlink" version="1.1"><rect x="0" y="0" width="1920" height="1080" fill="#2A2A2E"></rect><path d="M0 792L128 854L256 816L384 788L512 823L640 776L768 766L896 836L1024 767L1152 801L1280 841L1408 858L1536 814L1664 774L1792 785L1920 783L1920 1081L1792 1081L1664 1081L1536 1081L1408 1081L1280 1081L1152 1081L1024 1081L896 1081L768 1081L640 1081L512 1081L384 1081L256 1081L128 1081L0 1081Z" fill="#fbdd11"></path><path d="M0 843L128 868L256 874L384 856L512 847L640 888L768 807L896 858L1024 892L1152 880L1280 889L1408 859L1536 831L1664 819L1792 820L1920 880L1920 1081L1792 1081L1664 1081L1536 1081L1408 1081L1280 1081L1152 1081L1024 1081L896 1081L768 1081L640 1081L512 1081L384 1081L256 1081L128 1081L0 1081Z" fill="#d9da15"></path><path d="M0 924L128 893L256 867L384 876L512 852L640 895L768 910L896 865L1024 863L1152 921L1280 890L1408 871L1536 920L1664 853L1792 886L1920 893L1920 1081L1792 1081L1664 1081L1536 1081L1408 1081L1280 1081L1152 1081L1024 1081L896 1081L768 1081L640 1081L512 1081L384 1081L256 1081L128 1081L0 1081Z" fill="#b7d522"></path><path d="M0 935L128 948L256 898L384 910L512 943L640 953L768 898L896 955L1024 921L1152 937L1280 923L1408 921L1536 904L1664 910L1792 899L1920 948L1920 1081L1792 1081L1664 1081L1536 1081L1408 1081L1280 1081L1152 1081L1024 1081L896 1081L768 1081L640 1081L512 1081L384 1081L256 1081L128 1081L0 1081Z" fill="#95cf30"></path><path d="M0 970L128 973L256 950L384 941L512 967L640 983L768 958L896 968L1024 949L1152 980L1280 985L1408 949L1536 968L1664 973L1792 940L1920 957L1920 1081L1792 1081L1664 1081L1536 1081L1408 1081L1280 1081L1152 1081L1024 1081L896 1081L768 1081L640 1081L512 1081L384 1081L256 1081L128 1081L0 1081Z" fill="#72c73e"></path><path d="M0 991L128 987L256 990L384 998L512 1016L640 1004L768 989L896 991L1024 1003L1152 1013L1280 988L1408 1003L1536 992L1664 991L1792 1012L1920 987L1920 1081L1792 1081L1664 1081L1536 1081L1408 1081L1280 1081L1152 1081L1024 1081L896 1081L768 1081L640 1081L512 1081L384 1081L256 1081L128 1081L0 1081Z" fill="#4cbf4b"></path></svg>