<svg id="visual" viewBox="0 0 1920 1080" width="1920" height="1080" xmlns="http://www.w3.org/2000/svg" xmlns:xlink="http://www.w3.org/1999/xlink" version="1.1"><rect x="0" y="0" width="1920" height="1080" fill="#2A2A2E"></rect><path d="M0 799L128 807L256 839L384 815L512 782L640 766L768 810L896 845L1024 835L1152 824L1280 762L1408 832L1536 854L1664 800L1792 825L1920 812L1920 1081L1792 1081L1664 1081L1536 1081L1408 1081L1280 1081L1152 1081L1024 1081L896 1081L768 1081L640 1081L512 1081L384 1081L256 1081L128 1081L0 1081Z" fill="#fbdd11"></path><path d="M0 821L128 862L256 808L384 885L512 847L640 888L768 838L896 850L1024 870L1152 874L1280 843L1408 881L1536 843L1664 807L1792 852L1920 865L1920 1081L1792 1081L1664 1081L1536 1081L1408 1081L1280 1081L1152 1081L1024 1081L896 1081L768 1081L640 1081L512 1081L384 1081L256 1081L128 1081L0 1081Z" fill="#d9da15"></path><path d="M0 918L128 897L256 851L384 867L512 856L640 881L768 870L896 877L1024 903L1152 900L1280 889L1408 857L1536 914L1664 857L1792 884L1920 919L1920 1081L1792 1081L1664 1081L1536 1081L1408 1081L1280 1081L1152 1081L1024 1081L896 1081L768 1081L640 1081L512 1081L384 1081L256 1081L128 1081L0 1081Z" fill="#b7d522"></path><path d="M0 936L128 904L256 953L384 938L512 904L640 921L768 954L896 943L1024 942L1152 927L1280 941L1408 911L1536 932L1664 954L1792 949L1920 929L1920 1081L1792 1081L1664 1081L1536 1081L1408 1081L1280 1081L1152 1081L1024 1081L896 1081L768 1081L640 1081L512 1081L384 1081L256 1081L128 1081L0 1081Z" fill="#95cf30"></path><path d="M0 948L128 949L256 951L384 965L512 979L640 956L768 950L896 982L1024 972L1152 944L1280 975L1408 954L1536 942L1664 967L1792 944L1920 953L1920 1081L1792 1081L1664 1081L1536 1081L1408 1081L1280 1081L1152 1081L1024 1081L896 1081L768 1081L640 1081L512 1081L384 1081L256 1081L128 1081L0 1081Z" fill="#72c73e"></path><path d="M0 995L128 1008L256 1006L384 997L512 1005L640 1014L768 1011L896 998L1024 1009L1152 1011L1280 1011L1408 987L1536 990L1664 1009L1792 1017L1920 1011L1920 1081L1792 1081L1664 1081L1536 1081L1408 1081L1280 1081L1152 1081L1024 1081L896 1081L768 1081L640 1081L512 1081L384 1081L256 1081L128 1081L0 1081Z" fill="#4cbf4b"></path></svg>