<svg id="visual" viewBox="0 0 1920 1080" width="1920" height="1080" xmlns="http://www.w3.org/2000/svg" xmlns:xlink="http://www.w3.org/1999/xlink" version="1.1"><rect x="0" y="0" width="1920" height="1080" fill="#2A2A2E"></rect><path d="M0 851L128 853L256 801L384 766L512 810L640 768L768 756L896 833L1024 795L1152 800L1280 822L1408 764L1536 812L1664 776L1792 816L1920 845L1920 1081L1792 1081L1664 1081L1536 1081L1408 1081L1280 1081L1152 1081L1024 1081L896 1081L768 1081L640 1081L512 1081L384 1081L256 1081L128 1081L0 1081Z" fill="#fbdd11"></path><path d="M0 811L128 874L256 849L384 811L512 862L640 889L768 870L896 851L1024 888L1152 861L1280 886L1408 871L1536 820L1664 877L1792 860L1920 873L1920 1081L1792 1081L1664 1081L1536 1081L1408 1081L1280 1081L1152 1081L1024 1081L896 1081L768 1081L640 1081L512 1081L384 1081L256 1081L128 1081L0 1081Z" fill="#d9da15"></path><path d="M0 882L128 896L256 901L384 855L512 874L640 915L768 905L896 885L1024 918L1152 906L1280 876L1408 879L1536 871L1664 878L1792 860L1920 867L1920 1081L1792 1081L1664 1081L1536 1081L1408 1081L1280 1081L1152 1081L1024 1081L896 1081L768 1081L640 1081L512 1081L384 1081L256 1081L128 1081L0 1081Z" fill="#b7d522"></path><path d="M0 943L128 936L256 939L384 894L512 900L640 905L768 941L896 939L1024 938L1152 937L1280 901L1408 912L1536 943L1664 921L1792 923L1920 927L1920 1081L1792 1081L1664 1081L1536 1081L1408 1081L1280 1081L1152 1081L1024 1081L896 1081L768 1081L640 1081L512 1081L384 1081L256 1081L128 1081L0 1081Z" fill="#95cf30"></path><path d="M0 954L128 985L256 980L384 965L512 981L640 955L768 981L896 948L1024 970L1152 976L1280 951L1408 958L1536 982L1664 947L1792 949L1920 953L1920 1081L1792 1081L1664 1081L1536 1081L1408 1081L1280 1081L1152 1081L1024 1081L896 1081L768 1081L640 1081L512 1081L384 1081L256 1081L128 1081L0 1081Z" fill="#72c73e"></path><path d="M0 996L128 997L256 994L384 1006L512 1014L640 989L768 1007L896 1001L1024 997L1152 995L1280 1011L1408 992L1536 1001L1664 999L1792 1001L1920 1005L1920 1081L1792 1081L1664 1081L1536 1081L1408 1081L1280 1081L1152 1081L1024 1081L896 1081L768 1081L640 1081L512 1081L384 1081L256 1081L128 1081L0 1081Z" fill="#4cbf4b"></path></svg>