<svg id="visual" viewBox="0 0 1920 1080" width="1920" height="1080" xmlns="http://www.w3.org/2000/svg" xmlns:xlink="http://www.w3.org/1999/xlink" version="1.1"><rect x="0" y="0" width="1920" height="1080" fill="#2A2A2E"></rect><path d="M0 765L128 863L256 768L384 757L512 851L640 794L768 838L896 858L1024 821L1152 798L1280 789L1408 850L1536 788L1664 855L1792 844L1920 827L1920 1081L1792 1081L1664 1081L1536 1081L1408 1081L1280 1081L1152 1081L1024 1081L896 1081L768 1081L640 1081L512 1081L384 1081L256 1081L128 1081L0 1081Z" fill="#fbdd11"></path><path d="M0 834L128 810L256 842L384 805L512 881L640 804L768 827L896 856L1024 841L1152 860L1280 833L1408 894L1536 861L1664 852L1792 888L1920 826L1920 1081L1792 1081L1664 1081L1536 1081L1408 1081L1280 1081L1152 1081L1024 1081L896 1081L768 1081L640 1081L512 1081L384 1081L256 1081L128 1081L0 1081Z" fill="#d9da15"></path><path d="M0 894L128 890L256 871L384 861L512 878L640 882L768 851L896 901L1024 852L1152 882L1280 864L1408 864L1536 849L1664 890L1792 902L1920 924L1920 1081L1792 1081L1664 1081L1536 1081L1408 1081L1280 1081L1152 1081L1024 1081L896 1081L768 1081L640 1081L512 1081L384 1081L256 1081L128 1081L0 1081Z" fill="#b7d522"></path><path d="M0 904L128 926L256 922L384 904L512 897L640 929L768 908L896 908L1024 905L1152 928L1280 928L1408 932L1536 954L1664 947L1792 912L1920 940L1920 1081L1792 1081L1664 1081L1536 1081L1408 1081L1280 1081L1152 1081L1024 1081L896 1081L768 1081L640 1081L512 1081L384 1081L256 1081L128 1081L0 1081Z" fill="#95cf30"></path><path d="M0 974L128 967L256 960L384 963L512 955L640 959L768 983L896 977L1024 952L1152 956L1280 985L1408 945L1536 972L1664 981L1792 978L1920 956L1920 1081L1792 1081L1664 1081L1536 1081L1408 1081L1280 1081L1152 1081L1024 1081L896 1081L768 1081L640 1081L512 1081L384 1081L256 1081L128 1081L0 1081Z" fill="#72c73e"></path><path d="M0 996L128 992L256 1001L384 1001L512 1000L640 1014L768 1010L896 991L1024 1000L1152 1013L1280 1015L1408 1010L1536 1000L1664 1004L1792 989L1920 987L1920 1081L1792 1081L1664 1081L1536 1081L1408 1081L1280 1081L1152 1081L1024 1081L896 1081L768 1081L640 1081L512 1081L384 1081L256 1081L128 1081L0 1081Z" fill="#4cbf4b"></path></svg>