<svg id="visual" viewBox="0 0 1920 1080" width="1920" height="1080" xmlns="http://www.w3.org/2000/svg" xmlns:xlink="http://www.w3.org/1999/xlink" version="1.1"><rect x="0" y="0" width="1920" height="1080" fill="#2A2A2E"></rect><path d="M0 860L128 832L256 833L384 765L512 798L640 766L768 860L896 852L1024 859L1152 792L1280 763L1408 797L1536 831L1664 809L1792 847L1920 793L1920 1081L1792 1081L1664 1081L1536 1081L1408 1081L1280 1081L1152 1081L1024 1081L896 1081L768 1081L640 1081L512 1081L384 1081L256 1081L128 1081L0 1081Z" fill="#fbdd11"></path><path d="M0 828L128 804L256 860L384 821L512 863L640 810L768 861L896 823L1024 855L1152 854L1280 817L1408 874L1536 878L1664 855L1792 855L1920 870L1920 1081L1792 1081L1664 1081L1536 1081L1408 1081L1280 1081L1152 1081L1024 1081L896 1081L768 1081L640 1081L512 1081L384 1081L256 1081L128 1081L0 1081Z" fill="#d9da15"></path><path d="M0 909L128 924L256 874L384 871L512 920L640 903L768 919L896 872L1024 888L1152 911L1280 912L1408 912L1536 876L1664 899L1792 874L1920 888L1920 1081L1792 1081L1664 1081L1536 1081L1408 1081L1280 1081L1152 1081L1024 1081L896 1081L768 1081L640 1081L512 1081L384 1081L256 1081L128 1081L0 1081Z" fill="#b7d522"></path><path d="M0 913L128 915L256 904L384 896L512 922L640 899L768 915L896 910L1024 933L1152 931L1280 896L1408 941L1536 898L1664 949L1792 955L1920 908L1920 1081L1792 1081L1664 1081L1536 1081L1408 1081L1280 1081L1152 1081L1024 1081L896 1081L768 1081L640 1081L512 1081L384 1081L256 1081L128 1081L0 1081Z" fill="#95cf30"></path><path d="M0 957L128 963L256 969L384 942L512 961L640 950L768 953L896 944L1024 975L1152 975L1280 942L1408 947L1536 950L1664 965L1792 963L1920 974L1920 1081L1792 1081L1664 1081L1536 1081L1408 1081L1280 1081L1152 1081L1024 1081L896 1081L768 1081L640 1081L512 1081L384 1081L256 1081L128 1081L0 1081Z" fill="#72c73e"></path><path d="M0 1008L128 1001L256 994L384 1009L512 995L640 999L768 992L896 996L1024 1001L1152 1009L1280 1015L1408 997L1536 1008L1664 1008L1792 992L1920 1017L1920 1081L1792 1081L1664 1081L1536 1081L1408 1081L1280 1081L1152 1081L1024 1081L896 1081L768 1081L640 1081L512 1081L384 1081L256 1081L128 1081L0 1081Z" fill="#4cbf4b"></path></svg>