<svg id="visual" viewBox="0 0 1920 1080" width="1920" height="1080" xmlns="http://www.w3.org/2000/svg" xmlns:xlink="http://www.w3.org/1999/xlink" version="1.1"><rect x="0" y="0" width="1920" height="1080" fill="#2A2A2E"></rect><path d="M0 763L128 759L256 832L384 772L512 818L640 804L768 805L896 789L1024 774L1152 781L1280 779L1408 859L1536 800L1664 863L1792 851L1920 782L1920 1081L1792 1081L1664 1081L1536 1081L1408 1081L1280 1081L1152 1081L1024 1081L896 1081L768 1081L640 1081L512 1081L384 1081L256 1081L128 1081L0 1081Z" fill="#fbdd11"></path><path d="M0 873L128 879L256 857L384 884L512 869L640 873L768 814L896 889L1024 808L1152 880L1280 887L1408 864L1536 881L1664 815L1792 867L1920 808L1920 1081L1792 1081L1664 1081L1536 1081L1408 1081L1280 1081L1152 1081L1024 1081L896 1081L768 1081L640 1081L512 1081L384 1081L256 1081L128 1081L0 1081Z" fill="#d9da15"></path><path d="M0 869L128 919L256 894L384 913L512 916L640 859L768 860L896 919L1024 865L1152 906L1280 898L1408 881L1536 917L1664 886L1792 899L1920 860L1920 1081L1792 1081L1664 1081L1536 1081L1408 1081L1280 1081L1152 1081L1024 1081L896 1081L768 1081L640 1081L512 1081L384 1081L256 1081L128 1081L0 1081Z" fill="#b7d522"></path><path d="M0 935L128 943L256 951L384 915L512 912L640 922L768 948L896 947L1024 935L1152 926L1280 916L1408 940L1536 954L1664 903L1792 939L1920 932L1920 1081L1792 1081L1664 1081L1536 1081L1408 1081L1280 1081L1152 1081L1024 1081L896 1081L768 1081L640 1081L512 1081L384 1081L256 1081L128 1081L0 1081Z" fill="#95cf30"></path><path d="M0 979L128 978L256 971L384 946L512 941L640 950L768 977L896 958L1024 971L1152 965L1280 947L1408 954L1536 980L1664 965L1792 970L1920 954L1920 1081L1792 1081L1664 1081L1536 1081L1408 1081L1280 1081L1152 1081L1024 1081L896 1081L768 1081L640 1081L512 1081L384 1081L256 1081L128 1081L0 1081Z" fill="#72c73e"></path><path d="M0 1000L128 1013L256 986L384 1015L512 1011L640 990L768 1005L896 994L1024 1005L1152 991L1280 1014L1408 994L1536 1000L1664 993L1792 1007L1920 1007L1920 1081L1792 1081L1664 1081L1536 1081L1408 1081L1280 1081L1152 1081L1024 1081L896 1081L768 1081L640 1081L512 1081L384 1081L256 1081L128 1081L0 1081Z" fill="#4cbf4b"></path></svg>