<svg id="visual" viewBox="0 0 1920 1080" width="1920" height="1080" xmlns="http://www.w3.org/2000/svg" xmlns:xlink="http://www.w3.org/1999/xlink" version="1.1"><rect x="0" y="0" width="1920" height="1080" fill="#2A2A2E"></rect><path d="M0 861L128 837L256 854L384 857L512 814L640 805L768 803L896 783L1024 814L1152 820L1280 775L1408 849L1536 833L1664 759L1792 779L1920 770L1920 1081L1792 1081L1664 1081L1536 1081L1408 1081L1280 1081L1152 1081L1024 1081L896 1081L768 1081L640 1081L512 1081L384 1081L256 1081L128 1081L0 1081Z" fill="#fbdd11"></path><path d="M0 836L128 832L256 856L384 871L512 816L640 894L768 861L896 872L1024 820L1152 860L1280 878L1408 852L1536 832L1664 846L1792 825L1920 883L1920 1081L1792 1081L1664 1081L1536 1081L1408 1081L1280 1081L1152 1081L1024 1081L896 1081L768 1081L640 1081L512 1081L384 1081L256 1081L128 1081L0 1081Z" fill="#d9da15"></path><path d="M0 906L128 885L256 870L384 885L512 863L640 883L768 868L896 875L1024 857L1152 891L1280 887L1408 871L1536 879L1664 913L1792 857L1920 866L1920 1081L1792 1081L1664 1081L1536 1081L1408 1081L1280 1081L1152 1081L1024 1081L896 1081L768 1081L640 1081L512 1081L384 1081L256 1081L128 1081L0 1081Z" fill="#b7d522"></path><path d="M0 941L128 923L256 930L384 935L512 898L640 955L768 916L896 948L1024 919L1152 933L1280 924L1408 926L1536 944L1664 945L1792 937L1920 901L1920 1081L1792 1081L1664 1081L1536 1081L1408 1081L1280 1081L1152 1081L1024 1081L896 1081L768 1081L640 1081L512 1081L384 1081L256 1081L128 1081L0 1081Z" fill="#95cf30"></path><path d="M0 944L128 965L256 966L384 981L512 964L640 944L768 971L896 958L1024 962L1152 985L1280 965L1408 984L1536 983L1664 963L1792 969L1920 966L1920 1081L1792 1081L1664 1081L1536 1081L1408 1081L1280 1081L1152 1081L1024 1081L896 1081L768 1081L640 1081L512 1081L384 1081L256 1081L128 1081L0 1081Z" fill="#72c73e"></path><path d="M0 994L128 1000L256 997L384 990L512 1002L640 1012L768 1007L896 1000L1024 997L1152 1012L1280 994L1408 1008L1536 999L1664 992L1792 1007L1920 998L1920 1081L1792 1081L1664 1081L1536 1081L1408 1081L1280 1081L1152 1081L1024 1081L896 1081L768 1081L640 1081L512 1081L384 1081L256 1081L128 1081L0 1081Z" fill="#4cbf4b"></path></svg>