<svg id="visual" viewBox="0 0 1920 1080" width="1920" height="1080" xmlns="http://www.w3.org/2000/svg" xmlns:xlink="http://www.w3.org/1999/xlink" version="1.1"><rect x="0" y="0" width="1920" height="1080" fill="#2A2A2E"></rect><path d="M0 831L128 828L256 821L384 810L512 852L640 835L768 761L896 847L1024 768L1152 837L1280 771L1408 792L1536 795L1664 767L1792 766L1920 768L1920 1081L1792 1081L1664 1081L1536 1081L1408 1081L1280 1081L1152 1081L1024 1081L896 1081L768 1081L640 1081L512 1081L384 1081L256 1081L128 1081L0 1081Z" fill="#fbdd11"></path><path d="M0 869L128 816L256 883L384 849L512 836L640 838L768 889L896 880L1024 848L1152 854L1280 868L1408 819L1536 855L1664 807L1792 826L1920 842L1920 1081L1792 1081L1664 1081L1536 1081L1408 1081L1280 1081L1152 1081L1024 1081L896 1081L768 1081L640 1081L512 1081L384 1081L256 1081L128 1081L0 1081Z" fill="#d9da15"></path><path d="M0 890L128 856L256 871L384 906L512 893L640 860L768 874L896 856L1024 882L1152 920L1280 849L1408 924L1536 850L1664 866L1792 901L1920 862L1920 1081L1792 1081L1664 1081L1536 1081L1408 1081L1280 1081L1152 1081L1024 1081L896 1081L768 1081L640 1081L512 1081L384 1081L256 1081L128 1081L0 1081Z" fill="#b7d522"></path><path d="M0 904L128 911L256 910L384 919L512 941L640 908L768 953L896 900L1024 943L1152 938L1280 936L1408 906L1536 914L1664 900L1792 901L1920 951L1920 1081L1792 1081L1664 1081L1536 1081L1408 1081L1280 1081L1152 1081L1024 1081L896 1081L768 1081L640 1081L512 1081L384 1081L256 1081L128 1081L0 1081Z" fill="#95cf30"></path><path d="M0 955L128 950L256 974L384 964L512 955L640 974L768 970L896 958L1024 982L1152 956L1280 948L1408 962L1536 961L1664 956L1792 961L1920 952L1920 1081L1792 1081L1664 1081L1536 1081L1408 1081L1280 1081L1152 1081L1024 1081L896 1081L768 1081L640 1081L512 1081L384 1081L256 1081L128 1081L0 1081Z" fill="#72c73e"></path><path d="M0 989L128 995L256 1000L384 1009L512 990L640 999L768 993L896 990L1024 1010L1152 1010L1280 1012L1408 997L1536 989L1664 1012L1792 1002L1920 1000L1920 1081L1792 1081L1664 1081L1536 1081L1408 1081L1280 1081L1152 1081L1024 1081L896 1081L768 1081L640 1081L512 1081L384 1081L256 1081L128 1081L0 1081Z" fill="#4cbf4b"></path></svg>