<svg id="visual" viewBox="0 0 540 960" width="540" height="960" xmlns="http://www.w3.org/2000/svg" xmlns:xlink="http://www.w3.org/1999/xlink" version="1.1"><rect x="0" y="0" width="540" height="960" fill="#2A2A2E"></rect><path d="M0 749L77 702L154 732L231 733L309 696L386 684L463 738L540 732L540 961L463 961L386 961L309 961L231 961L154 961L77 961L0 961Z" fill="#fbdd11"></path><path d="M0 733L77 786L154 715L231 706L309 739L386 736L463 731L540 767L540 961L463 961L386 961L309 961L231 961L154 961L77 961L0 961Z" fill="#e2db12"></path><path d="M0 746L77 800L154 755L231 781L309 791L386 753L463 744L540 751L540 961L463 961L386 961L309 961L231 961L154 961L77 961L0 961Z" fill="#cad81a"></path><path d="M0 772L77 782L154 810L231 783L309 820L386 819L463 823L540 801L540 961L463 961L386 961L309 961L231 961L154 961L77 961L0 961Z" fill="#b2d424"></path><path d="M0 839L77 844L154 817L231 841L309 803L386 820L463 810L540 822L540 961L463 961L386 961L309 961L231 961L154 961L77 961L0 961Z" fill="#9ad02e"></path><path d="M0 845L77 857L154 839L231 838L309 845L386 852L463 858L540 860L540 961L463 961L386 961L309 961L231 961L154 961L77 961L0 961Z" fill="#81cb38"></path><path d="M0 889L77 871L154 877L231 893L309 886L386 890L463 889L540 873L540 961L463 961L386 961L309 961L231 961L154 961L77 961L0 961Z" fill="#68c542"></path><path d="M0 911L77 912L154 913L231 904L309 905L386 913L463 904L540 910L540 961L463 961L386 961L309 961L231 961L154 961L77 961L0 961Z" fill="#4cbf4b"></path></svg>