<svg id="visual" viewBox="0 0 540 960" width="540" height="960" xmlns="http://www.w3.org/2000/svg" xmlns:xlink="http://www.w3.org/1999/xlink" version="1.1"><rect x="0" y="0" width="540" height="960" fill="#2A2A2E"></rect><path d="M0 740L77 694L154 738L231 676L309 746L386 722L463 739L540 699L540 961L463 961L386 961L309 961L231 961L154 961L77 961L0 961Z" fill="#fbdd11"></path><path d="M0 781L77 760L154 713L231 732L309 752L386 721L463 714L540 761L540 961L463 961L386 961L309 961L231 961L154 961L77 961L0 961Z" fill="#e2db12"></path><path d="M0 776L77 780L154 739L231 740L309 793L386 769L463 763L540 768L540 961L463 961L386 961L309 961L231 961L154 961L77 961L0 961Z" fill="#cad81a"></path><path d="M0 812L77 823L154 822L231 816L309 801L386 791L463 827L540 785L540 961L463 961L386 961L309 961L231 961L154 961L77 961L0 961Z" fill="#b2d424"></path><path d="M0 811L77 821L154 845L231 850L309 829L386 848L463 825L540 833L540 961L463 961L386 961L309 961L231 961L154 961L77 961L0 961Z" fill="#9ad02e"></path><path d="M0 865L77 844L154 867L231 844L309 843L386 869L463 856L540 872L540 961L463 961L386 961L309 961L231 961L154 961L77 961L0 961Z" fill="#81cb38"></path><path d="M0 867L77 882L154 885L231 867L309 864L386 893L463 885L540 877L540 961L463 961L386 961L309 961L231 961L154 961L77 961L0 961Z" fill="#68c542"></path><path d="M0 900L77 908L154 903L231 901L309 914L386 908L463 895L540 903L540 961L463 961L386 961L309 961L231 961L154 961L77 961L0 961Z" fill="#4cbf4b"></path></svg>