<svg id="visual" viewBox="0 0 540 960" width="540" height="960" xmlns="http://www.w3.org/2000/svg" xmlns:xlink="http://www.w3.org/1999/xlink" version="1.1"><rect x="0" y="0" width="540" height="960" fill="#2A2A2E"></rect><path d="M0 762L77 694L154 673L231 725L309 751L386 699L463 704L540 672L540 961L463 961L386 961L309 961L231 961L154 961L77 961L0 961Z" fill="#fbdd11"></path><path d="M0 770L77 717L154 705L231 717L309 759L386 712L463 747L540 705L540 961L463 961L386 961L309 961L231 961L154 961L77 961L0 961Z" fill="#e2db12"></path><path d="M0 767L77 791L154 799L231 809L309 784L386 756L463 779L540 793L540 961L463 961L386 961L309 961L231 961L154 961L77 961L0 961Z" fill="#cad81a"></path><path d="M0 824L77 810L154 827L231 776L309 774L386 827L463 828L540 822L540 961L463 961L386 961L309 961L231 961L154 961L77 961L0 961Z" fill="#b2d424"></path><path d="M0 806L77 836L154 809L231 827L309 834L386 808L463 848L540 822L540 961L463 961L386 961L309 961L231 961L154 961L77 961L0 961Z" fill="#9ad02e"></path><path d="M0 861L77 865L154 843L231 832L309 856L386 840L463 842L540 859L540 961L463 961L386 961L309 961L231 961L154 961L77 961L0 961Z" fill="#81cb38"></path><path d="M0 888L77 886L154 880L231 895L309 895L386 880L463 885L540 864L540 961L463 961L386 961L309 961L231 961L154 961L77 961L0 961Z" fill="#68c542"></path><path d="M0 896L77 909L154 900L231 915L309 912L386 916L463 912L540 901L540 961L463 961L386 961L309 961L231 961L154 961L77 961L0 961Z" fill="#4cbf4b"></path></svg>