<svg id="visual" viewBox="0 0 540 960" width="540" height="960" xmlns="http://www.w3.org/2000/svg" xmlns:xlink="http://www.w3.org/1999/xlink" version="1.1"><rect x="0" y="0" width="540" height="960" fill="#2A2A2E"></rect><path d="M0 712L77 672L154 716L231 751L309 735L386 700L463 728L540 731L540 961L463 961L386 961L309 961L231 961L154 961L77 961L0 961Z" fill="#fbdd11"></path><path d="M0 780L77 719L154 768L231 747L309 758L386 736L463 723L540 714L540 961L463 961L386 961L309 961L231 961L154 961L77 961L0 961Z" fill="#e2db12"></path><path d="M0 766L77 740L154 765L231 788L309 787L386 739L463 794L540 781L540 961L463 961L386 961L309 961L231 961L154 961L77 961L0 961Z" fill="#cad81a"></path><path d="M0 787L77 782L154 783L231 790L309 817L386 793L463 789L540 819L540 961L463 961L386 961L309 961L231 961L154 961L77 961L0 961Z" fill="#b2d424"></path><path d="M0 804L77 824L154 803L231 817L309 821L386 834L463 839L540 846L540 961L463 961L386 961L309 961L231 961L154 961L77 961L0 961Z" fill="#9ad02e"></path><path d="M0 864L77 868L154 852L231 840L309 870L386 855L463 855L540 871L540 961L463 961L386 961L309 961L231 961L154 961L77 961L0 961Z" fill="#81cb38"></path><path d="M0 868L77 873L154 865L231 863L309 867L386 892L463 867L540 879L540 961L463 961L386 961L309 961L231 961L154 961L77 961L0 961Z" fill="#68c542"></path><path d="M0 902L77 906L154 913L231 915L309 911L386 897L463 896L540 911L540 961L463 961L386 961L309 961L231 961L154 961L77 961L0 961Z" fill="#4cbf4b"></path></svg>