<svg id="visual" viewBox="0 0 540 960" width="540" height="960" xmlns="http://www.w3.org/2000/svg" xmlns:xlink="http://www.w3.org/1999/xlink" version="1.1"><rect x="0" y="0" width="540" height="960" fill="#2A2A2E"></rect><path d="M0 733L77 728L154 749L231 685L309 732L386 678L463 727L540 706L540 961L463 961L386 961L309 961L231 961L154 961L77 961L0 961Z" fill="#fbdd11"></path><path d="M0 774L77 754L154 707L231 768L309 750L386 729L463 775L540 728L540 961L463 961L386 961L309 961L231 961L154 961L77 961L0 961Z" fill="#e2db12"></path><path d="M0 760L77 795L154 742L231 792L309 805L386 775L463 745L540 798L540 961L463 961L386 961L309 961L231 961L154 961L77 961L0 961Z" fill="#cad81a"></path><path d="M0 815L77 793L154 774L231 790L309 823L386 796L463 811L540 826L540 961L463 961L386 961L309 961L231 961L154 961L77 961L0 961Z" fill="#b2d424"></path><path d="M0 833L77 831L154 810L231 816L309 816L386 834L463 848L540 832L540 961L463 961L386 961L309 961L231 961L154 961L77 961L0 961Z" fill="#9ad02e"></path><path d="M0 868L77 852L154 847L231 865L309 867L386 865L463 840L540 842L540 961L463 961L386 961L309 961L231 961L154 961L77 961L0 961Z" fill="#81cb38"></path><path d="M0 889L77 891L154 875L231 885L309 882L386 883L463 864L540 890L540 961L463 961L386 961L309 961L231 961L154 961L77 961L0 961Z" fill="#68c542"></path><path d="M0 905L77 901L154 900L231 906L309 908L386 902L463 899L540 898L540 961L463 961L386 961L309 961L231 961L154 961L77 961L0 961Z" fill="#4cbf4b"></path></svg>